<?xml version="1.0" encoding="UTF-8"?> <svg xmlns="http://www.w3.org/2000/svg" width="3970" height="2104" viewBox="0 0 3970 2104" fill="none"> <rect x="23" y="23" width="3732" height="1866" stroke="#5271FF" stroke-width="45"></rect> <circle cx="3755" cy="1889" r="215" fill="#DB3A34"></circle> <path d="M1125.27 1031H1094.8V629.926H955.93V602.68H1264.13V629.926H1125.27V1031ZM1432 602.68C1465.99 602.68 1494.31 606.391 1516.96 613.812C1539.82 621.234 1557 633.441 1568.53 650.434C1580.05 667.426 1585.81 690.375 1585.81 719.281C1585.81 740.961 1581.81 759.613 1573.8 775.238C1565.99 790.668 1555.15 803.363 1541.28 813.324C1527.41 823.285 1511.4 830.902 1493.23 836.176L1610.71 1031H1574.97L1464.52 844.672H1358.18V1031H1328V602.68H1432ZM1429.07 629.34H1358.18V818.012H1443.43C1478.39 818.012 1505.64 809.613 1525.17 792.816C1544.89 776.02 1554.76 751.898 1554.76 720.453C1554.76 685.883 1544.41 662.055 1523.7 648.969C1503 635.883 1471.46 629.34 1429.07 629.34ZM1952.9 1031L1894.6 879.535H1714.72L1655.25 1031H1624.48L1792.94 601.215H1820.48L1984.54 1031H1952.9ZM1884.93 852.289L1825.75 691.742C1824.19 687.641 1822.24 682.367 1819.89 675.922C1817.75 669.477 1815.4 662.641 1812.86 655.414C1810.52 648.188 1808.18 641.352 1805.83 634.906C1803.88 641.742 1801.73 648.578 1799.39 655.414C1797.04 662.25 1794.8 668.891 1792.65 675.336C1790.5 681.586 1788.45 687.25 1786.5 692.328L1724.97 852.289H1884.93ZM2045.19 1031V602.68H2075.36V1031H2045.19ZM2508.08 1031H2477.32L2224.19 652.191H2222.73C2223.12 662.738 2223.41 673.48 2223.61 684.418C2224 695.16 2224.29 706.293 2224.48 717.816C2224.88 729.145 2225.07 740.863 2225.07 752.973V1031H2196.36V602.68H2227.41L2479.66 980.316H2481.12C2480.93 971.723 2480.64 961.762 2480.25 950.434C2480.05 939.105 2479.76 927.484 2479.37 915.57C2479.17 903.656 2479.07 892.426 2479.07 881.879V602.68H2508.08V1031ZM2629.37 1031V602.68H2659.54V1031H2629.37ZM3092.26 1031H3061.5L2808.37 652.191H2806.91C2807.3 662.738 2807.59 673.48 2807.79 684.418C2808.18 695.16 2808.47 706.293 2808.66 717.816C2809.05 729.145 2809.25 740.863 2809.25 752.973V1031H2780.54V602.68H2811.59L3063.84 980.316H3065.3C3065.11 971.723 3064.82 961.762 3064.43 950.434C3064.23 939.105 3063.94 927.484 3063.55 915.57C3063.35 903.656 3063.25 892.426 3063.25 881.879V602.68H3092.26V1031ZM3382.59 814.789H3539.91V1011.37C3519.41 1019.96 3497.53 1026.41 3474.29 1030.71C3451.05 1034.81 3426.34 1036.86 3400.17 1036.86C3354.66 1036.86 3316.28 1028.27 3285.03 1011.08C3253.98 993.695 3230.44 968.598 3214.43 935.785C3198.41 902.973 3190.4 863.52 3190.4 817.426C3190.4 774.457 3199.09 736.273 3216.48 702.875C3234.05 669.477 3259.15 643.305 3291.77 624.359C3324.39 605.414 3363.45 595.941 3408.96 595.941C3432.39 595.941 3454.46 598.09 3475.17 602.387C3496.07 606.684 3515.89 613.129 3534.64 621.723L3522.63 648.676C3504.07 640.082 3485.13 633.637 3465.79 629.34C3446.65 625.043 3427.22 622.895 3407.49 622.895C3368.82 622.895 3335.52 631.195 3307.59 647.797C3279.86 664.203 3258.57 687.055 3243.72 716.352C3229.07 745.453 3221.75 779.047 3221.75 817.133C3221.75 860.297 3228.88 896.137 3243.14 924.652C3257.39 953.168 3278.2 974.555 3305.54 988.812C3333.08 1003.07 3366.48 1010.2 3405.73 1010.2C3427.22 1010.2 3446.46 1008.64 3463.45 1005.51C3480.64 1002.39 3496.16 998.285 3510.03 993.207V842.328H3382.59V814.789Z" fill="black"></path> <path d="M1339.13 1455.74C1339.13 1503.59 1330.64 1543.73 1313.64 1576.15C1296.85 1608.57 1271.85 1632.98 1238.64 1649.39C1205.64 1665.8 1164.72 1674 1115.89 1674H1013.35V1245.68H1129.37C1175.07 1245.68 1213.45 1253.69 1244.5 1269.7C1275.56 1285.72 1299.09 1309.35 1315.11 1340.6C1331.12 1371.66 1339.13 1410.04 1339.13 1455.74ZM1307.49 1456.91C1307.49 1416.09 1300.85 1382.01 1287.57 1354.66C1274.29 1327.32 1253.98 1306.81 1226.63 1293.14C1199.29 1279.27 1164.62 1272.34 1122.63 1272.34H1043.53V1647.34H1114.43C1179.07 1647.34 1227.41 1631.52 1259.45 1599.88C1291.48 1568.04 1307.49 1520.39 1307.49 1456.91ZM1705.05 1674L1646.75 1522.54H1466.87L1407.39 1674H1376.63L1545.09 1244.21H1572.63L1736.69 1674H1705.05ZM1637.08 1495.29L1577.9 1334.74C1576.34 1330.64 1574.39 1325.37 1572.04 1318.92C1569.89 1312.48 1567.55 1305.64 1565.01 1298.41C1562.67 1291.19 1560.32 1284.35 1557.98 1277.91C1556.03 1284.74 1553.88 1291.58 1551.54 1298.41C1549.19 1305.25 1546.95 1311.89 1544.8 1318.34C1542.65 1324.59 1540.6 1330.25 1538.64 1335.33L1477.12 1495.29H1637.08ZM1909.25 1674H1878.78V1272.93H1739.91V1245.68H2048.12V1272.93H1909.25V1674ZM2380.05 1674L2321.75 1522.54H2141.87L2082.39 1674H2051.63L2220.09 1244.21H2247.63L2411.69 1674H2380.05ZM2312.08 1495.29L2252.9 1334.74C2251.34 1330.64 2249.39 1325.37 2247.04 1318.92C2244.89 1312.48 2242.55 1305.64 2240.01 1298.41C2237.67 1291.19 2235.32 1284.35 2232.98 1277.91C2231.03 1284.74 2228.88 1291.58 2226.54 1298.41C2224.19 1305.25 2221.95 1311.89 2219.8 1318.34C2217.65 1324.59 2215.6 1330.25 2213.64 1335.33L2152.12 1495.29H2312.08Z" fill="black"></path> </svg> 